<svg xmlns="http://www.w3.org/2000/svg" xmlns:xlink="http://www.w3.org/1999/xlink" width="1920" zoomAndPan="magnify" viewBox="0 0 1440 809.999993" height="1080" preserveAspectRatio="xMidYMid meet" version="1.0"><defs><g/></defs><rect x="-144" width="1728" fill="#ffffff" y="-80.999999" height="971.999992" fill-opacity="1"/><rect x="-144" width="1728" fill="#fefefe" y="-80.999999" height="971.999992" fill-opacity="1"/><g fill="#28285b" fill-opacity="1"><g transform="translate(553.743146, 362.996867)"><g><path d="M 8.160156 0 L 52.222656 0 C 73.03125 0 85 -9.792969 85 -26.792969 C 85 -38.894531 78.46875 -47.054688 66.910156 -49.503906 L 66.910156 -49.640625 C 76.429688 -52.222656 82.007812 -59.566406 82.007812 -70.039062 C 82.007812 -86.496094 71.125 -95.878906 52.085938 -95.878906 L 8.160156 -95.878906 Z M 19.449219 -54.398438 L 19.449219 -85.8125 L 50.726562 -85.8125 C 63.511719 -85.8125 70.855469 -79.964844 70.855469 -70.039062 C 70.855469 -60.109375 63.511719 -54.398438 50.726562 -54.398438 Z M 19.449219 -10.0625 L 19.449219 -44.335938 L 50.726562 -44.335938 C 65.277344 -44.335938 73.847656 -38.078125 73.847656 -27.335938 C 73.847656 -16.320312 65.277344 -10.0625 50.726562 -10.0625 Z M 19.449219 -10.0625 "/></g></g></g><g fill="#28285b" fill-opacity="1"><g transform="translate(642.820553, 362.996867)"><g><path d="M 13.191406 -82.007812 C 17.679688 -82.007812 20.945312 -85.132812 20.945312 -89.621094 C 20.945312 -93.972656 17.679688 -97.101562 13.191406 -97.101562 C 8.703125 -97.101562 5.574219 -93.972656 5.574219 -89.621094 C 5.574219 -85.132812 8.703125 -82.007812 13.191406 -82.007812 Z M -2.582031 31.28125 C 10.472656 31.28125 18.359375 23.527344 18.359375 10.742188 L 18.359375 -68.679688 L 7.886719 -68.679688 L 7.886719 9.792969 C 7.886719 17.542969 3.671875 22.167969 -3.398438 22.167969 C -5.710938 22.167969 -8.566406 21.757812 -11.152344 20.808594 L -12.375 29.375 C -9.519531 30.734375 -5.847656 31.28125 -2.582031 31.28125 Z M -2.582031 31.28125 "/></g></g></g><g fill="#28285b" fill-opacity="1"><g transform="translate(669.203784, 362.996867)"><g><path d="M 40.664062 2.71875 C 62.832031 2.71875 77.382812 -11.96875 77.382812 -34.269531 C 77.382812 -56.710938 62.832031 -71.398438 40.664062 -71.398438 C 18.632812 -71.398438 4.078125 -56.710938 4.078125 -34.269531 C 4.078125 -11.96875 18.632812 2.71875 40.664062 2.71875 Z M 40.664062 -6.664062 C 24.75 -6.664062 14.414062 -17.542969 14.414062 -34.269531 C 14.414062 -51 24.75 -61.878906 40.664062 -61.878906 C 56.574219 -61.878906 66.910156 -51 66.910156 -34.269531 C 66.910156 -17.542969 56.574219 -6.664062 40.664062 -6.664062 Z M 40.664062 -6.664062 "/></g></g></g><g fill="#28285b" fill-opacity="1"><g transform="translate(750.665423, 362.996867)"><g><path d="M 36.582031 -71.535156 C 27.878906 -71.535156 20.535156 -66.230469 16.726562 -57.933594 L 16.589844 -57.933594 L 15.640625 -68.679688 L 6.800781 -68.679688 L 6.800781 0 L 17.136719 0 L 17.136719 -37.808594 C 17.136719 -52.765625 24.070312 -61.878906 35.085938 -61.878906 C 42.566406 -61.878906 47.597656 -56.710938 48.6875 -47.054688 L 57.664062 -50.046875 C 56.304688 -63.78125 48.277344 -71.535156 36.582031 -71.535156 Z M 36.582031 -71.535156 "/></g></g></g><g fill="#28285b" fill-opacity="1"><g transform="translate(811.047653, 362.996867)"><g><path d="M 43.65625 -71.398438 C 31.6875 -71.398438 23.121094 -66.773438 17.273438 -58.480469 L 17.136719 -58.480469 L 16.183594 -68.679688 L 6.800781 -68.679688 L 6.800781 0 L 17.136719 0 L 17.136719 -38.757812 C 17.136719 -52.765625 27.0625 -62.421875 40.800781 -62.421875 C 51.679688 -62.421875 58.613281 -54.941406 58.613281 -43.246094 L 58.613281 0 L 69.085938 0 L 69.085938 -44.335938 C 69.085938 -61.335938 59.429688 -71.398438 43.65625 -71.398438 Z M 43.65625 -71.398438 "/></g></g></g><g fill="#65cdd3" fill-opacity="1"><g transform="translate(259.309563, 474.546884)"><g><path d="M 21.355469 0 L 28.652344 0 L 49.246094 -53.578125 L 42.558594 -53.578125 L 25.15625 -6.914062 L 25.003906 -6.914062 L 7.449219 -53.578125 L 0.761719 -53.578125 Z M 21.355469 0 "/></g></g></g><g fill="#65cdd3" fill-opacity="1"><g transform="translate(309.315, 474.546884)"><g><path d="M 7.296875 -45.828125 C 9.804688 -45.828125 11.628906 -47.5 11.628906 -50.082031 C 11.628906 -52.589844 9.804688 -54.261719 7.296875 -54.261719 C 4.710938 -54.261719 3.039062 -52.589844 3.039062 -50.082031 C 3.039062 -47.5 4.710938 -45.828125 7.296875 -45.828125 Z M 4.332031 0 L 10.109375 0 L 10.109375 -38.378906 L 4.332031 -38.378906 Z M 4.332031 0 "/></g></g></g><g fill="#65cdd3" fill-opacity="1"><g transform="translate(323.982251, 474.546884)"><g><path d="M 20.441406 -39.976562 C 15.578125 -39.976562 11.476562 -37.011719 9.347656 -32.375 L 9.273438 -32.375 L 8.738281 -38.378906 L 3.800781 -38.378906 L 3.800781 0 L 9.574219 0 L 9.574219 -21.128906 C 9.574219 -29.488281 13.453125 -34.578125 19.605469 -34.578125 C 23.789062 -34.578125 26.597656 -31.691406 27.207031 -26.296875 L 32.222656 -27.96875 C 31.464844 -35.644531 26.980469 -39.976562 20.441406 -39.976562 Z M 20.441406 -39.976562 "/></g></g></g><g fill="#65cdd3" fill-opacity="1"><g transform="translate(357.724513, 474.546884)"><g><path d="M 20.519531 1.519531 C 27.054688 1.519531 32.90625 -2.582031 33.972656 -9.273438 L 29.257812 -11.246094 C 28.5 -6.308594 24.925781 -3.496094 21.050781 -3.496094 C 16.871094 -3.496094 14.210938 -6.613281 14.210938 -10.945312 L 14.210938 -33.589844 L 31.386719 -33.589844 L 31.386719 -38.378906 L 14.210938 -38.378906 L 14.210938 -51.144531 L 8.4375 -49.777344 L 8.4375 -38.378906 L 0 -38.378906 L 0 -33.589844 L 8.4375 -33.589844 L 8.4375 -10.335938 C 8.4375 -3.34375 13.300781 1.519531 20.519531 1.519531 Z M 20.519531 1.519531 "/></g></g></g><g fill="#65cdd3" fill-opacity="1"><g transform="translate(391.998754, 474.546884)"><g><path d="M 17.632812 1.519531 C 24.320312 1.519531 29.105469 -1.0625 32.375 -5.699219 L 32.449219 -5.699219 L 32.984375 0 L 38.226562 0 L 38.226562 -38.378906 L 32.449219 -38.378906 L 32.449219 -16.71875 C 32.449219 -8.890625 26.902344 -3.496094 19.226562 -3.496094 C 13.148438 -3.496094 9.273438 -7.675781 9.273438 -14.210938 L 9.273438 -38.378906 L 3.417969 -38.378906 L 3.417969 -13.605469 C 3.417969 -4.105469 8.816406 1.519531 17.632812 1.519531 Z M 17.632812 1.519531 "/></g></g></g><g fill="#65cdd3" fill-opacity="1"><g transform="translate(434.024592, 474.546884)"><g><path d="M 16.339844 1.519531 C 23.179688 1.519531 28.5 -1.519531 31.234375 -6.382812 L 31.3125 -6.382812 L 31.386719 -4.636719 C 31.613281 -1.140625 33.972656 1.519531 37.695312 1.519531 C 40.660156 1.519531 43.851562 -0.0742188 45.445312 -2.433594 L 42.332031 -6.078125 C 41.496094 -4.710938 40.277344 -3.800781 39.214844 -3.800781 C 38 -3.800781 37.164062 -4.863281 37.164062 -6.382812 L 37.164062 -25.839844 C 37.164062 -34.425781 30.246094 -39.898438 20.441406 -39.898438 C 10.488281 -39.898438 3.039062 -33.972656 2.355469 -27.664062 L 7.601562 -25.460938 C 7.902344 -30.019531 12.996094 -34.65625 20.214844 -34.65625 C 26.902344 -34.65625 31.464844 -31.539062 31.464844 -26.75 C 31.464844 -25.078125 30.246094 -24.015625 28.347656 -23.789062 L 18.847656 -22.648438 C 6.382812 -21.128906 1.519531 -16.1875 1.519531 -10.03125 C 1.519531 -3.191406 7.601562 1.519531 16.339844 1.519531 Z M 17.328125 -3.722656 C 11.476562 -3.722656 7.296875 -6.230469 7.296875 -10.109375 C 7.296875 -13.605469 10.183594 -16.566406 19.457031 -17.707031 L 31.3125 -19.152344 L 31.3125 -16.414062 C 31.3125 -8.96875 25.382812 -3.722656 17.328125 -3.722656 Z M 17.328125 -3.722656 "/></g></g></g><g fill="#65cdd3" fill-opacity="1"><g transform="translate(479.470257, 474.546884)"><g><path d="M 3.800781 0 L 9.574219 0 L 9.574219 -55.859375 L 3.800781 -55.859375 Z M 3.800781 0 "/></g></g></g><g fill="#65cdd3" fill-opacity="1"><g transform="translate(492.845561, 474.546884)"><g/></g></g><g fill="#65cdd3" fill-opacity="1"><g transform="translate(513.516497, 474.546884)"><g><path d="M 24.699219 1.898438 C 36.78125 1.898438 44.609375 -5.242188 44.609375 -15.046875 C 44.609375 -22.34375 39.441406 -27.207031 29.105469 -29.488281 L 20.441406 -31.464844 C 13.679688 -32.984375 10.792969 -35.566406 10.792969 -40.125 C 10.792969 -45.675781 15.425781 -49.855469 22.722656 -49.855469 C 29.5625 -49.855469 34.65625 -45.371094 35.414062 -38.835938 L 41.417969 -40.355469 C 39.898438 -49.324219 32.449219 -55.476562 22.648438 -55.476562 C 11.703125 -55.476562 4.484375 -48.714844 4.484375 -39.0625 C 4.484375 -31.917969 8.96875 -27.585938 18.46875 -25.382812 L 27.132812 -23.40625 C 34.957031 -21.582031 38.304688 -18.769531 38.304688 -14.058594 C 38.304688 -8.207031 33.136719 -3.722656 24.699219 -3.722656 C 15.351562 -3.722656 8.285156 -9.652344 7.75 -18.011719 L 1.519531 -16.871094 C 2.734375 -5.851562 12.3125 1.898438 24.699219 1.898438 Z M 24.699219 1.898438 "/></g></g></g><g fill="#65cdd3" fill-opacity="1"><g transform="translate(559.646141, 474.546884)"><g><path d="M 7.296875 -45.828125 C 9.804688 -45.828125 11.628906 -47.5 11.628906 -50.082031 C 11.628906 -52.589844 9.804688 -54.261719 7.296875 -54.261719 C 4.710938 -54.261719 3.039062 -52.589844 3.039062 -50.082031 C 3.039062 -47.5 4.710938 -45.828125 7.296875 -45.828125 Z M 4.332031 0 L 10.109375 0 L 10.109375 -38.378906 L 4.332031 -38.378906 Z M 4.332031 0 "/></g></g></g><g fill="#65cdd3" fill-opacity="1"><g transform="translate(574.313391, 474.546884)"><g><path d="M 3.800781 0 L 9.574219 0 L 9.574219 -21.355469 C 9.574219 -29.105469 13.90625 -34.578125 21.203125 -34.578125 C 27.054688 -34.578125 30.476562 -31.082031 30.476562 -25.15625 L 30.476562 0 L 36.25 0 L 36.25 -21.355469 C 36.25 -29.105469 40.582031 -34.578125 47.878906 -34.578125 C 53.652344 -34.578125 57.074219 -31.082031 57.074219 -25.15625 L 57.074219 0 L 62.925781 0 L 62.925781 -25.535156 C 62.925781 -34.578125 57.984375 -39.898438 49.625 -39.898438 C 43.925781 -39.898438 38.605469 -37.542969 35.1875 -32.148438 L 35.109375 -32.148438 C 33.136719 -37.085938 29.03125 -39.898438 22.953125 -39.898438 C 16.796875 -39.898438 11.78125 -37.238281 9.5 -32.753906 L 9.421875 -32.753906 L 8.816406 -38.378906 L 3.800781 -38.378906 Z M 3.800781 0 "/></g></g></g><g fill="#65cdd3" fill-opacity="1"><g transform="translate(640.657993, 474.546884)"><g><path d="M 17.632812 1.519531 C 24.320312 1.519531 29.105469 -1.0625 32.375 -5.699219 L 32.449219 -5.699219 L 32.984375 0 L 38.226562 0 L 38.226562 -38.378906 L 32.449219 -38.378906 L 32.449219 -16.71875 C 32.449219 -8.890625 26.902344 -3.496094 19.226562 -3.496094 C 13.148438 -3.496094 9.273438 -7.675781 9.273438 -14.210938 L 9.273438 -38.378906 L 3.417969 -38.378906 L 3.417969 -13.605469 C 3.417969 -4.105469 8.816406 1.519531 17.632812 1.519531 Z M 17.632812 1.519531 "/></g></g></g><g fill="#65cdd3" fill-opacity="1"><g transform="translate(682.683809, 474.546884)"><g><path d="M 3.800781 0 L 9.574219 0 L 9.574219 -55.859375 L 3.800781 -55.859375 Z M 3.800781 0 "/></g></g></g><g fill="#65cdd3" fill-opacity="1"><g transform="translate(696.059113, 474.546884)"><g><path d="M 16.339844 1.519531 C 23.179688 1.519531 28.5 -1.519531 31.234375 -6.382812 L 31.3125 -6.382812 L 31.386719 -4.636719 C 31.613281 -1.140625 33.972656 1.519531 37.695312 1.519531 C 40.660156 1.519531 43.851562 -0.0742188 45.445312 -2.433594 L 42.332031 -6.078125 C 41.496094 -4.710938 40.277344 -3.800781 39.214844 -3.800781 C 38 -3.800781 37.164062 -4.863281 37.164062 -6.382812 L 37.164062 -25.839844 C 37.164062 -34.425781 30.246094 -39.898438 20.441406 -39.898438 C 10.488281 -39.898438 3.039062 -33.972656 2.355469 -27.664062 L 7.601562 -25.460938 C 7.902344 -30.019531 12.996094 -34.65625 20.214844 -34.65625 C 26.902344 -34.65625 31.464844 -31.539062 31.464844 -26.75 C 31.464844 -25.078125 30.246094 -24.015625 28.347656 -23.789062 L 18.847656 -22.648438 C 6.382812 -21.128906 1.519531 -16.1875 1.519531 -10.03125 C 1.519531 -3.191406 7.601562 1.519531 16.339844 1.519531 Z M 17.328125 -3.722656 C 11.476562 -3.722656 7.296875 -6.230469 7.296875 -10.109375 C 7.296875 -13.605469 10.183594 -16.566406 19.457031 -17.707031 L 31.3125 -19.152344 L 31.3125 -16.414062 C 31.3125 -8.96875 25.382812 -3.722656 17.328125 -3.722656 Z M 17.328125 -3.722656 "/></g></g></g><g fill="#65cdd3" fill-opacity="1"><g transform="translate(741.504789, 474.546884)"><g><path d="M 20.519531 1.519531 C 27.054688 1.519531 32.90625 -2.582031 33.972656 -9.273438 L 29.257812 -11.246094 C 28.5 -6.308594 24.925781 -3.496094 21.050781 -3.496094 C 16.871094 -3.496094 14.210938 -6.613281 14.210938 -10.945312 L 14.210938 -33.589844 L 31.386719 -33.589844 L 31.386719 -38.378906 L 14.210938 -38.378906 L 14.210938 -51.144531 L 8.4375 -49.777344 L 8.4375 -38.378906 L 0 -38.378906 L 0 -33.589844 L 8.4375 -33.589844 L 8.4375 -10.335938 C 8.4375 -3.34375 13.300781 1.519531 20.519531 1.519531 Z M 20.519531 1.519531 "/></g></g></g><g fill="#65cdd3" fill-opacity="1"><g transform="translate(775.779019, 474.546884)"><g><path d="M 7.296875 -45.828125 C 9.804688 -45.828125 11.628906 -47.5 11.628906 -50.082031 C 11.628906 -52.589844 9.804688 -54.261719 7.296875 -54.261719 C 4.710938 -54.261719 3.039062 -52.589844 3.039062 -50.082031 C 3.039062 -47.5 4.710938 -45.828125 7.296875 -45.828125 Z M 4.332031 0 L 10.109375 0 L 10.109375 -38.378906 L 4.332031 -38.378906 Z M 4.332031 0 "/></g></g></g><g fill="#65cdd3" fill-opacity="1"><g transform="translate(790.446269, 474.546884)"><g><path d="M 22.722656 1.519531 C 35.109375 1.519531 43.242188 -6.6875 43.242188 -19.152344 C 43.242188 -31.691406 35.109375 -39.898438 22.722656 -39.898438 C 10.410156 -39.898438 2.28125 -31.691406 2.28125 -19.152344 C 2.28125 -6.6875 10.410156 1.519531 22.722656 1.519531 Z M 22.722656 -3.722656 C 13.832031 -3.722656 8.054688 -9.804688 8.054688 -19.152344 C 8.054688 -28.5 13.832031 -34.578125 22.722656 -34.578125 C 31.613281 -34.578125 37.390625 -28.5 37.390625 -19.152344 C 37.390625 -9.804688 31.613281 -3.722656 22.722656 -3.722656 Z M 22.722656 -3.722656 "/></g></g></g><g fill="#65cdd3" fill-opacity="1"><g transform="translate(835.967935, 474.546884)"><g><path d="M 24.394531 -39.898438 C 17.707031 -39.898438 12.917969 -37.316406 9.652344 -32.679688 L 9.574219 -32.679688 L 9.042969 -38.378906 L 3.800781 -38.378906 L 3.800781 0 L 9.574219 0 L 9.574219 -21.660156 C 9.574219 -29.488281 15.125 -34.882812 22.800781 -34.882812 C 28.878906 -34.882812 32.753906 -30.703125 32.753906 -24.167969 L 32.753906 0 L 38.605469 0 L 38.605469 -24.773438 C 38.605469 -34.273438 33.210938 -39.898438 24.394531 -39.898438 Z M 24.394531 -39.898438 "/></g></g></g><g fill="#65cdd3" fill-opacity="1"><g transform="translate(877.993796, 474.546884)"><g/></g></g><g fill="#65cdd3" fill-opacity="1"><g transform="translate(898.664755, 474.546884)"><g><path d="M 18.695312 0 L 25.003906 0 L 25.003906 -47.953125 L 42.9375 -47.953125 L 42.9375 -53.578125 L 0.761719 -53.578125 L 0.761719 -47.953125 L 18.695312 -47.953125 Z M 18.695312 0 "/></g></g></g><g fill="#65cdd3" fill-opacity="1"><g transform="translate(942.362506, 474.546884)"><g><path d="M 20.441406 -39.976562 C 15.578125 -39.976562 11.476562 -37.011719 9.347656 -32.375 L 9.273438 -32.375 L 8.738281 -38.378906 L 3.800781 -38.378906 L 3.800781 0 L 9.574219 0 L 9.574219 -21.128906 C 9.574219 -29.488281 13.453125 -34.578125 19.605469 -34.578125 C 23.789062 -34.578125 26.597656 -31.691406 27.207031 -26.296875 L 32.222656 -27.96875 C 31.464844 -35.644531 26.980469 -39.976562 20.441406 -39.976562 Z M 20.441406 -39.976562 "/></g></g></g><g fill="#65cdd3" fill-opacity="1"><g transform="translate(976.104768, 474.546884)"><g><path d="M 16.339844 1.519531 C 23.179688 1.519531 28.5 -1.519531 31.234375 -6.382812 L 31.3125 -6.382812 L 31.386719 -4.636719 C 31.613281 -1.140625 33.972656 1.519531 37.695312 1.519531 C 40.660156 1.519531 43.851562 -0.0742188 45.445312 -2.433594 L 42.332031 -6.078125 C 41.496094 -4.710938 40.277344 -3.800781 39.214844 -3.800781 C 38 -3.800781 37.164062 -4.863281 37.164062 -6.382812 L 37.164062 -25.839844 C 37.164062 -34.425781 30.246094 -39.898438 20.441406 -39.898438 C 10.488281 -39.898438 3.039062 -33.972656 2.355469 -27.664062 L 7.601562 -25.460938 C 7.902344 -30.019531 12.996094 -34.65625 20.214844 -34.65625 C 26.902344 -34.65625 31.464844 -31.539062 31.464844 -26.75 C 31.464844 -25.078125 30.246094 -24.015625 28.347656 -23.789062 L 18.847656 -22.648438 C 6.382812 -21.128906 1.519531 -16.1875 1.519531 -10.03125 C 1.519531 -3.191406 7.601562 1.519531 16.339844 1.519531 Z M 17.328125 -3.722656 C 11.476562 -3.722656 7.296875 -6.230469 7.296875 -10.109375 C 7.296875 -13.605469 10.183594 -16.566406 19.457031 -17.707031 L 31.3125 -19.152344 L 31.3125 -16.414062 C 31.3125 -8.96875 25.382812 -3.722656 17.328125 -3.722656 Z M 17.328125 -3.722656 "/></g></g></g><g fill="#65cdd3" fill-opacity="1"><g transform="translate(1021.550445, 474.546884)"><g><path d="M 7.296875 -45.828125 C 9.804688 -45.828125 11.628906 -47.5 11.628906 -50.082031 C 11.628906 -52.589844 9.804688 -54.261719 7.296875 -54.261719 C 4.710938 -54.261719 3.039062 -52.589844 3.039062 -50.082031 C 3.039062 -47.5 4.710938 -45.828125 7.296875 -45.828125 Z M 4.332031 0 L 10.109375 0 L 10.109375 -38.378906 L 4.332031 -38.378906 Z M 4.332031 0 "/></g></g></g><g fill="#65cdd3" fill-opacity="1"><g transform="translate(1036.217695, 474.546884)"><g><path d="M 24.394531 -39.898438 C 17.707031 -39.898438 12.917969 -37.316406 9.652344 -32.679688 L 9.574219 -32.679688 L 9.042969 -38.378906 L 3.800781 -38.378906 L 3.800781 0 L 9.574219 0 L 9.574219 -21.660156 C 9.574219 -29.488281 15.125 -34.882812 22.800781 -34.882812 C 28.878906 -34.882812 32.753906 -30.703125 32.753906 -24.167969 L 32.753906 0 L 38.605469 0 L 38.605469 -24.773438 C 38.605469 -34.273438 33.210938 -39.898438 24.394531 -39.898438 Z M 24.394531 -39.898438 "/></g></g></g><g fill="#65cdd3" fill-opacity="1"><g transform="translate(1078.243511, 474.546884)"><g><path d="M 7.296875 -45.828125 C 9.804688 -45.828125 11.628906 -47.5 11.628906 -50.082031 C 11.628906 -52.589844 9.804688 -54.261719 7.296875 -54.261719 C 4.710938 -54.261719 3.039062 -52.589844 3.039062 -50.082031 C 3.039062 -47.5 4.710938 -45.828125 7.296875 -45.828125 Z M 4.332031 0 L 10.109375 0 L 10.109375 -38.378906 L 4.332031 -38.378906 Z M 4.332031 0 "/></g></g></g><g fill="#65cdd3" fill-opacity="1"><g transform="translate(1092.910716, 474.546884)"><g><path d="M 24.394531 -39.898438 C 17.707031 -39.898438 12.917969 -37.316406 9.652344 -32.679688 L 9.574219 -32.679688 L 9.042969 -38.378906 L 3.800781 -38.378906 L 3.800781 0 L 9.574219 0 L 9.574219 -21.660156 C 9.574219 -29.488281 15.125 -34.882812 22.800781 -34.882812 C 28.878906 -34.882812 32.753906 -30.703125 32.753906 -24.167969 L 32.753906 0 L 38.605469 0 L 38.605469 -24.773438 C 38.605469 -34.273438 33.210938 -39.898438 24.394531 -39.898438 Z M 24.394531 -39.898438 "/></g></g></g><g fill="#65cdd3" fill-opacity="1"><g transform="translate(1134.936532, 474.546884)"><g><path d="M 20.441406 17.480469 C 33.363281 17.480469 41.949219 9.421875 41.949219 -3.039062 L 41.949219 -38.378906 L 36.78125 -38.378906 L 36.175781 -32.148438 L 36.097656 -32.148438 C 32.984375 -36.628906 27.054688 -39.746094 21.507812 -39.746094 C 10.183594 -39.746094 2.355469 -31.539062 2.355469 -19.457031 C 2.355469 -7.675781 10.183594 0.457031 21.507812 0.457031 C 26.902344 0.457031 32.984375 -2.507812 36.023438 -7.296875 L 36.097656 -7.296875 L 36.097656 -3.039062 C 36.097656 6.230469 29.792969 12.234375 20.292969 12.234375 C 13.300781 12.234375 6.765625 8.738281 3.722656 3.417969 L -0.761719 7.21875 C 2.964844 13.375 11.398438 17.480469 20.441406 17.480469 Z M 22.265625 -4.789062 C 13.90625 -4.789062 8.132812 -10.792969 8.132812 -19.457031 C 8.132812 -28.421875 13.90625 -34.578125 22.265625 -34.578125 C 30.550781 -34.578125 36.328125 -28.042969 36.328125 -19.457031 C 36.328125 -11.09375 30.550781 -4.789062 22.265625 -4.789062 Z M 22.265625 -4.789062 "/></g></g></g></svg>