<svg xmlns="http://www.w3.org/2000/svg" xmlns:xlink="http://www.w3.org/1999/xlink" width="1920" zoomAndPan="magnify" viewBox="0 0 1440 809.999993" height="1080" preserveAspectRatio="xMidYMid meet" version="1.0"><defs><g/><clipPath id="907317ac49"><path d="M 608.332031 83 L 990.832031 83 L 990.832031 434 L 608.332031 434 Z M 608.332031 83 " clip-rule="nonzero"/></clipPath><clipPath id="46d905a70f"><path d="M 874.214844 81 L 1358.8125 81 L 1358.8125 423.75 L 874.214844 423.75 Z M 874.214844 81 " clip-rule="nonzero"/></clipPath></defs><rect x="-144" width="1728" fill="#ffffff" y="-80.999999" height="971.999992" fill-opacity="1"/><rect x="-144" width="1728" fill="#fefefe" y="-80.999999" height="971.999992" fill-opacity="1"/><g clip-path="url(#907317ac49)"><path fill="#28285b" d="M 979.289062 233.40625 C 979.199219 234.480469 978.828125 235.539062 978.453125 236.480469 C 977.828125 238.015625 976.992188 239.449219 976.1875 240.878906 C 974.484375 243.851562 972.335938 246.550781 969.785156 248.816406 C 964.625 253.414062 958.625 257.578125 952.746094 261.203125 C 949.972656 262.902344 946.839844 264.246094 943.855469 265.542969 L 928.113281 273.421875 C 922.292969 276.332031 915.25 275.183594 910.640625 270.558594 C 910.285156 270.199219 909.910156 269.839844 909.539062 269.484375 C 907.34375 267.453125 905.152344 265.679688 902.585938 264.113281 C 893.246094 258.398438 882.710938 254.578125 872.328125 251.25 C 865.253906 248.984375 858.078125 246.996094 850.871094 245.207031 C 843.097656 243.269531 834.683594 242.492188 827.296875 239.3125 C 820.210938 236.269531 815.675781 230.152344 810.289062 224.945312 C 807.648438 222.394531 804.855469 219.992188 801.917969 217.785156 C 801.410156 217.410156 801.679688 216.605469 802.304688 216.605469 C 813.914062 216.589844 875.488281 218.082031 953.121094 249.445312 C 953.894531 249.757812 954.6875 250.058594 955.492188 250.324219 C 956.089844 250.535156 956.925781 250.878906 957.683594 251.382812 C 959.445312 252.5625 961.742188 252.636719 963.488281 251.414062 C 966.21875 249.488281 968.785156 247.296875 971.023438 244.820312 C 973.308594 242.328125 975.261719 239.523438 976.632812 236.433594 C 977.304688 234.914062 977.78125 233.285156 978.140625 231.675781 C 978.1875 231.511719 978.246094 231.332031 978.363281 231.210938 C 978.484375 231.09375 978.679688 231.019531 978.828125 231.09375 C 978.976562 231.167969 979.035156 231.347656 979.082031 231.496094 C 979.261719 232.121094 979.335938 232.765625 979.289062 233.40625 Z M 949.152344 268.664062 C 940.707031 274.617188 922.742188 283.058594 917.296875 285.566406 C 916.59375 285.894531 915.746094 285.777344 915.222656 285.207031 C 914.355469 284.253906 914.746094 282.867188 915.832031 282.449219 C 922.070312 280.03125 939.570312 271.527344 948.300781 267.246094 C 949.226562 266.796875 949.984375 268.082031 949.152344 268.664062 Z M 915.996094 337.980469 C 915.011719 338.578125 913.402344 338.90625 912.222656 336.011719 C 910.640625 332.148438 907.074219 302.054688 904.824219 292.3125 C 904.523438 290.996094 903.925781 289.789062 903.167969 288.671875 C 902.523438 287.730469 902.167969 286 905.851562 284.121094 C 906.164062 283.957031 906.523438 284.296875 906.328125 284.613281 C 905.65625 285.789062 905.269531 287.550781 908.792969 287.773438 C 909.222656 287.804688 909.550781 288.179688 909.523438 288.609375 C 909.179688 293.25 907.984375 316.78125 916.503906 336.339844 C 916.773438 336.953125 916.550781 337.636719 915.996094 337.980469 Z M 794.621094 225.347656 C 793.472656 226.886719 792.085938 227.886719 791.339844 225.304688 C 791.085938 224.46875 791.039062 223.574219 791.144531 222.707031 C 792.101562 214.351562 799.515625 158.953125 831.355469 131.574219 C 831.773438 131.214844 832.324219 131.796875 831.96875 132.203125 C 822.058594 142.898438 801.722656 170.425781 796.710938 219.886719 C 796.5 221.871094 795.800781 223.765625 794.621094 225.347656 Z M 789.207031 226.066406 C 785.59375 223.617188 766.496094 211.578125 747.863281 216.457031 C 747.535156 216.546875 747.21875 216.308594 747.21875 215.980469 C 747.21875 215.441406 747.578125 214.964844 748.101562 214.816406 C 752.128906 213.726562 769.421875 210.203125 789.085938 224.335938 C 789.546875 224.664062 789.800781 225.183594 789.800781 225.738281 C 789.800781 226.050781 789.460938 226.242188 789.207031 226.066406 Z M 744.863281 208.292969 C 744.414062 208.503906 743.96875 208.726562 743.535156 208.980469 C 741.773438 209.980469 738.015625 211.90625 735.058594 211.996094 C 733.074219 212.070312 731.957031 209.773438 733.238281 208.265625 C 734.867188 206.371094 738.640625 204.132812 747.382812 203.746094 C 748.085938 203.714844 748.519531 204.519531 748.085938 205.085938 C 747.144531 206.28125 745.789062 207.878906 744.863281 208.292969 Z M 701.414062 202.757812 C 701.234375 203.535156 700.550781 204.074219 699.757812 204.058594 C 698.25 204.042969 695.699219 204.25 692.550781 205.414062 C 691.835938 205.683594 691.179688 204.90625 691.566406 204.25 C 694.535156 199.28125 705.710938 187.242188 751.1875 175.992188 C 752.246094 175.722656 752.710938 176.542969 751.652344 176.828125 C 738.269531 180.378906 704.203125 190.554688 701.414062 202.757812 Z M 858.660156 110.105469 C 864.222656 105.523438 872.550781 106.671875 876.609375 112.640625 C 890.664062 133.351562 893.257812 151.808594 891.8125 165.890625 C 890.8125 175.695312 881.636719 182.511719 871.96875 180.664062 C 857.242188 177.84375 841.5 175.304688 827.371094 173.976562 C 818.777344 173.171875 813.570312 163.996094 817.359375 156.238281 C 825.851562 138.839844 846.289062 120.308594 858.660156 110.105469 Z M 861.015625 102.210938 C 861.300781 101.972656 861.628906 101.765625 861.988281 101.527344 C 862.34375 101.285156 862.734375 101.03125 863.148438 100.75 C 863.566406 100.464844 864.046875 100.226562 864.523438 99.957031 C 864.777344 99.808594 865.03125 99.675781 865.285156 99.542969 C 865.539062 99.390625 865.804688 99.242188 866.089844 99.125 C 866.65625 98.871094 867.238281 98.601562 867.835938 98.316406 C 868.460938 98.078125 869.105469 97.855469 869.773438 97.601562 C 870.445312 97.347656 871.148438 97.183594 871.863281 96.960938 C 872.042969 96.914062 872.222656 96.855469 872.414062 96.8125 C 872.59375 96.765625 872.773438 96.734375 872.96875 96.691406 C 873.339844 96.617188 873.714844 96.527344 874.101562 96.453125 C 874.476562 96.363281 874.863281 96.316406 875.25 96.257812 C 875.636719 96.199219 876.042969 96.140625 876.429688 96.078125 C 877.21875 95.976562 878.039062 95.929688 878.847656 95.886719 C 879.667969 95.871094 880.488281 95.839844 881.308594 95.871094 C 882.144531 95.902344 882.964844 95.914062 883.785156 96.003906 L 885.023438 96.140625 L 886.246094 96.332031 C 887.066406 96.4375 887.859375 96.632812 888.664062 96.796875 C 890.246094 97.152344 891.78125 97.601562 893.246094 98.109375 C 894.707031 98.601562 896.078125 99.199219 897.363281 99.78125 C 898.644531 100.375 899.824219 100.972656 900.882812 101.601562 C 901.421875 101.898438 901.929688 102.210938 902.40625 102.496094 C 902.867188 102.808594 903.316406 103.078125 903.734375 103.359375 C 904.570312 103.914062 905.253906 104.433594 905.824219 104.867188 C 906.390625 105.300781 906.820312 105.671875 907.105469 105.910156 C 907.402344 106.164062 907.554688 106.300781 907.554688 106.300781 C 907.554688 106.300781 907.375 106.179688 907.0625 105.988281 C 906.734375 105.777344 906.253906 105.496094 905.644531 105.136719 C 905.03125 104.777344 904.285156 104.359375 903.421875 103.898438 C 902.539062 103.433594 901.554688 102.941406 900.464844 102.421875 C 899.363281 101.898438 898.167969 101.40625 896.886719 100.882812 C 895.601562 100.390625 894.230469 99.898438 892.796875 99.464844 C 892.082031 99.242188 891.351562 99.046875 890.605469 98.855469 C 890.230469 98.75 889.84375 98.675781 889.46875 98.585938 C 889.097656 98.496094 888.707031 98.390625 888.335938 98.316406 C 887.558594 98.183594 886.785156 98.003906 885.992188 97.914062 L 884.828125 97.734375 L 883.636719 97.632812 C 882.84375 97.527344 882.054688 97.511719 881.261719 97.46875 C 880.472656 97.421875 878.128906 97.496094 877.742188 97.527344 C 877.355469 97.542969 876.964844 97.542969 876.59375 97.585938 C 876.207031 97.632812 875.832031 97.675781 875.460938 97.722656 C 875.070312 97.75 871.460938 98.40625 870.132812 98.765625 C 869.476562 98.960938 868.835938 99.152344 868.222656 99.347656 C 867.613281 99.554688 867.03125 99.78125 866.460938 99.988281 C 865.894531 100.183594 865.386719 100.453125 864.882812 100.660156 C 864.375 100.882812 863.882812 101.0625 863.449219 101.300781 C 863.015625 101.527344 862.613281 101.734375 862.226562 101.929688 C 861.851562 102.121094 861.496094 102.285156 861.195312 102.480469 C 859.972656 103.195312 859.257812 103.585938 859.257812 103.585938 C 859.257812 103.585938 859.882812 103.078125 861.015625 102.210938 Z M 823.640625 422.847656 L 823.523438 422.9375 C 819.761719 425.847656 813.777344 427.308594 805.765625 427.308594 C 788.683594 427.308594 769.257812 420.476562 769.0625 420.402344 L 712.558594 399.855469 L 657.878906 376.683594 C 632.214844 362.945312 625.902344 348.261719 625.695312 347.753906 C 624.8125 345.398438 623.902344 343.144531 623.007812 340.964844 C 620.875 335.683594 618.859375 330.699219 617.742188 325.226562 C 616.160156 317.585938 615.636719 309.617188 615.234375 302.097656 C 614.488281 287.96875 614.21875 269.511719 618.980469 252.101562 C 621.546875 242.6875 627.589844 234.585938 634.734375 230.945312 C 638.273438 229.152344 642.507812 228.257812 647.34375 228.257812 C 648.777344 228.257812 650.253906 228.332031 651.746094 228.496094 C 658.132812 229.167969 664.636719 231.167969 670.933594 233.09375 C 673.929688 234.015625 681.0625 236.195312 681.0625 236.195312 C 700.386719 242.132812 720.363281 248.265625 740.582031 254.070312 L 758.082031 259.097656 C 811.898438 273.792969 824.058594 287.164062 825.105469 288.417969 L 825.460938 289.089844 L 825.835938 289.3125 C 846.304688 310.527344 845.304688 342.578125 845.289062 342.90625 C 843.828125 383.816406 840.875 394.367188 840.53125 395.484375 L 840.261719 396.082031 L 840.246094 396.5 C 836.949219 413.402344 823.894531 422.667969 823.761719 422.773438 Z M 990.40625 262.976562 C 989.734375 253.757812 987.765625 244.640625 984.660156 235.941406 C 983.585938 232.914062 982.363281 229.945312 981.019531 227.019531 C 981.019531 227.019531 973.21875 209.921875 947.941406 199.253906 C 938.183594 195.136719 931.769531 185.71875 931.605469 175.128906 C 931.113281 141.453125 918.355469 118.234375 918.355469 118.234375 C 898.660156 82.414062 859.824219 82.160156 839.992188 84.710938 C 831.699219 85.785156 823.777344 88.828125 816.941406 93.664062 C 784.328125 116.699219 766.824219 158.089844 761.019531 174.082031 C 737.566406 176.902344 710.875 183.898438 693.402344 200.207031 C 688.105469 205.148438 681.765625 208.847656 674.855469 211.011719 L 669.8125 212.59375 C 668.992188 212.84375 669.15625 214.054688 670.023438 214.082031 C 678.898438 214.53125 687.539062 216.875 695.984375 219.53125 C 704.324219 222.140625 712.648438 224.75 721.050781 227.214844 C 734.464844 231.152344 747.875 235.078125 761.289062 239.015625 C 767.707031 240.894531 774.105469 242.804688 780.535156 244.65625 L 810.242188 253.203125 C 810.242188 253.203125 851.675781 264.378906 865.046875 289.253906 C 865.714844 290.476562 866.402344 291.699219 867.148438 292.878906 C 870.265625 297.832031 879.070312 314.734375 876.9375 345.382812 C 876.878906 346.15625 876.832031 346.933594 876.816406 347.726562 C 876.59375 354.542969 874.90625 392.664062 863.492188 405.554688 C 863.210938 405.855469 862.941406 406.167969 862.671875 406.480469 C 861.046875 408.449219 853.585938 416.984375 843.21875 421.011719 C 842.558594 421.28125 842.039062 420.402344 842.605469 419.953125 C 846.84375 416.523438 850.558594 412.417969 853.480469 407.808594 C 860.300781 397.035156 862.792969 384.128906 864.089844 371.460938 C 865.597656 357.003906 865.714844 342.414062 864.492188 327.941406 C 863.433594 315.644531 860.824219 303.382812 854.75 292.503906 C 849.140625 282.433594 840.367188 274.4375 830.804688 268.167969 C 829.074219 267.035156 827.3125 265.960938 825.519531 264.945312 C 811.617188 257.070312 795.859375 253.039062 780.582031 248.652344 C 769.109375 245.355469 757.648438 242.03125 746.21875 238.582031 C 730 233.675781 713.769531 228.78125 697.550781 223.871094 C 682.601562 219.351562 666.992188 214.785156 651.582031 217.394531 C 651.28125 217.441406 651 217.605469 650.851562 217.859375 C 650.402344 218.648438 651.640625 219.378906 652.582031 219.5 C 658.863281 220.335938 665.113281 221.351562 671.335938 222.527344 C 687.078125 225.527344 702.609375 229.660156 717.765625 234.851562 C 730.523438 239.164062 743.011719 244.164062 755.828125 248.28125 C 771.242188 253.25 786.980469 257.21875 801.976562 263.410156 C 812.121094 267.589844 822.105469 272.46875 830.445312 279.703125 C 841.367188 289.207031 848.886719 301.890625 852.675781 315.824219 C 856.972656 331.640625 857.019531 348.292969 856.109375 364.660156 C 855.511719 375.28125 854.511719 386.011719 851.230469 396.140625 C 848.484375 404.660156 844.542969 406.347656 846.230469 397.664062 C 846.230469 397.664062 849.765625 388.710938 851.394531 343.144531 C 851.394531 343.144531 852.75 308.410156 830.234375 285.074219 C 830.234375 285.074219 820.730469 269.886719 759.691406 253.203125 C 753.890625 251.535156 748.070312 249.878906 742.265625 248.207031 C 722.394531 242.492188 702.625 236.433594 682.855469 230.363281 C 679.480469 229.332031 676.09375 228.289062 672.722656 227.257812 C 666.054688 225.214844 659.324219 223.15625 652.386719 222.425781 C 645.449219 221.691406 638.199219 222.351562 631.976562 225.511719 C 622.457031 230.347656 615.847656 240.417969 613.085938 250.503906 C 608.492188 267.335938 608.222656 285.105469 609.148438 302.425781 C 609.582031 310.5 610.132812 318.527344 611.757812 326.464844 C 613.488281 334.894531 617.039062 341.980469 619.980469 349.917969 C 619.980469 349.917969 626.214844 366.75 655.25 382.207031 L 710.320312 405.527344 L 767.019531 426.144531 C 767.019531 426.144531 805.363281 439.828125 824.359375 429.636719 C 824.984375 429.292969 825.65625 429.023438 826.328125 428.800781 C 829.191406 427.863281 831.816406 426.398438 834.609375 425.308594 C 838.144531 423.9375 841.8125 423.503906 845.425781 422.476562 C 848.664062 421.550781 851.8125 420.253906 854.871094 418.820312 C 864.507812 414.566406 874.625 410.824219 883.949219 405.957031 C 889.617188 403.003906 894.902344 399.320312 899.628906 395.023438 C 913.519531 382.382812 923.414062 364.570312 925.652344 345.875 C 925.800781 344.621094 925.949219 343.351562 926.085938 342.085938 C 926.425781 338.757812 928.605469 335.894531 931.722656 334.667969 C 936.917969 332.625 942.035156 330.386719 947.0625 327.941406 C 953.613281 324.746094 960.011719 321.195312 966.054688 317.109375 C 971.964844 313.09375 977.664062 308.515625 982.125 302.875 C 986.792969 296.964844 988.855469 289.847656 989.851562 282.492188 C 990.734375 276.03125 990.882812 269.46875 990.40625 262.976562 " fill-opacity="1" fill-rule="nonzero"/></g><g clip-path="url(#46d905a70f)"><path fill="#28285b" d="M 1345.660156 341.453125 L 1344.640625 335.667969 L 1353.421875 332.5625 L 1353.902344 338.425781 Z M 930.796875 312.011719 L 939.769531 316.386719 L 941.148438 325.582031 L 932.074219 321.179688 Z M 881.261719 120.289062 C 878.859375 109.757812 877.128906 98.117188 882.523438 91.640625 C 885.804688 87.703125 891.5625 85.773438 900.074219 85.773438 C 900.933594 85.773438 901.816406 85.792969 902.730469 85.832031 C 930.597656 87.023438 1103.582031 99.511719 1120.078125 100.953125 C 1133.90625 102.164062 1140.980469 111.742188 1145.296875 135.125 C 1149.382812 157.226562 1166.199219 238.054688 1169.273438 252.808594 L 929.527344 305.003906 C 924.28125 285.234375 885.589844 139.277344 881.261719 120.289062 Z M 1334.871094 339.125 L 1342.335938 336.484375 L 1343.359375 342.292969 L 1335.695312 345.105469 Z M 1325.195312 342.550781 L 1332.542969 339.953125 L 1333.378906 345.953125 L 1326.378906 348.523438 Z M 1314.589844 346.308594 L 1322.898438 343.367188 L 1324.082031 349.363281 L 1315.527344 352.5 Z M 1304.519531 349.875 L 1312.273438 347.125 L 1313.21875 353.34375 L 1305.214844 356.28125 Z M 1294.335938 353.476562 L 1302.179688 350.699219 L 1302.878906 357.136719 L 1295.191406 359.960938 Z M 1282.53125 357.65625 L 1292.011719 354.300781 L 1292.871094 360.808594 L 1283.402344 364.28125 Z M 1269.722656 362.191406 L 1280.207031 358.476562 L 1281.078125 365.132812 L 1270.8125 368.894531 Z M 1258.589844 366.132812 L 1267.410156 363.007812 L 1268.507812 369.746094 L 1259.4375 373.070312 Z M 1247.066406 370.210938 L 1256.261719 366.957031 L 1257.105469 373.925781 L 1248.0625 377.242188 Z M 1234.601562 374.625 L 1244.746094 371.03125 L 1245.742188 378.09375 L 1235.699219 381.773438 Z M 1224.882812 378.0625 L 1232.285156 375.445312 L 1233.386719 382.621094 L 1225.949219 385.347656 Z M 1212.566406 382.421875 L 1222.566406 378.882812 L 1223.632812 386.195312 L 1213.4375 389.9375 Z M 1201.578125 386.3125 L 1210.230469 383.253906 L 1211.109375 390.789062 L 1202.308594 394.015625 Z M 1199.875 381.859375 L 1165.980469 365.476562 L 1231.488281 342.390625 L 1267.617188 357.878906 Z M 1191.40625 389.917969 L 1199.234375 387.144531 L 1199.96875 394.875 L 1192.152344 397.738281 Z M 1182.378906 393.113281 L 1189.0625 390.746094 L 1189.808594 398.597656 L 1183.136719 401.046875 Z M 1172.914062 396.460938 L 1180.035156 393.941406 L 1180.789062 401.90625 L 1173.910156 404.429688 Z M 1162.660156 400.09375 L 1170.582031 397.289062 L 1171.582031 405.28125 L 1163.667969 408.183594 Z M 1152.128906 403.820312 L 1160.328125 400.914062 L 1161.335938 409.039062 L 1153.28125 411.996094 Z M 1143.761719 406.78125 L 1149.804688 404.644531 L 1150.964844 412.847656 L 1144.769531 415.121094 Z M 1134.367188 410.109375 L 1141.433594 407.605469 L 1142.4375 415.96875 L 1134.996094 418.699219 Z M 1123.867188 406.195312 L 1131.949219 410.136719 L 1132.558594 418.460938 L 1124.699219 414.648438 Z M 1114.761719 401.75 L 1121.324219 404.949219 L 1122.152344 413.410156 L 1115.511719 410.191406 Z M 1102.613281 395.828125 L 1112.261719 400.53125 C 1112.261719 400.585938 1112.242188 400.632812 1112.246094 400.6875 L 1112.976562 408.957031 L 1103.738281 404.476562 Z M 1090.710938 390.019531 L 1100.015625 394.558594 L 1101.140625 403.21875 L 1091.964844 398.765625 Z M 1079.136719 384.371094 L 1088.085938 388.742188 L 1089.34375 397.492188 L 1080.296875 393.101562 Z M 1067.246094 378.574219 L 1076.53125 383.101562 L 1077.695312 391.839844 L 1068.195312 387.230469 Z M 1056.765625 373.460938 L 1064.679688 377.320312 L 1065.632812 385.988281 L 1057.019531 381.808594 Z M 1044.347656 367.402344 L 1054.3125 372.265625 L 1054.566406 380.617188 L 1044.679688 375.820312 Z M 1032.894531 361.8125 L 1041.886719 366.203125 L 1042.21875 374.625 L 1033.605469 370.449219 Z M 1019.875 355.460938 L 1030.367188 360.582031 L 1031.085938 369.226562 L 1020.753906 364.207031 Z M 1008.421875 349.878906 L 1017.324219 354.21875 L 1018.203125 362.96875 L 1009.578125 358.789062 Z M 994.949219 343.304688 L 1005.824219 348.609375 L 1006.984375 357.53125 L 996.378906 352.382812 Z M 981.792969 336.886719 L 992.300781 342.011719 L 993.734375 351.101562 L 983.425781 346.09375 Z M 969.652344 330.964844 L 979.105469 335.578125 L 980.742188 344.796875 L 970.96875 340.054688 Z M 956.59375 324.59375 L 967.023438 329.6875 L 968.347656 338.78125 L 957.9375 333.730469 Z M 953.96875 323.308594 L 955.3125 332.460938 L 943.777344 326.859375 L 942.40625 317.671875 Z M 1348.835938 329.128906 L 1271.808594 356.394531 L 1232.140625 339.382812 C 1231.789062 339.234375 1231.398438 339.222656 1231.042969 339.351562 L 1161.5625 363.835938 C 1160.984375 364.035156 1160.589844 364.5625 1160.550781 365.167969 C 1160.523438 365.78125 1160.855469 366.351562 1161.40625 366.613281 L 1195.875 383.277344 L 1133.226562 405.457031 L 934.902344 308.707031 L 1171.871094 257.121094 Z M 1357.921875 329.105469 C 1357.917969 329.035156 1357.90625 328.972656 1357.898438 328.90625 C 1357.898438 328.90625 1357.898438 328.90625 1357.898438 328.898438 C 1357.816406 328.390625 1357.566406 327.933594 1357.222656 327.589844 C 1357.21875 327.582031 1357.21875 327.582031 1357.21875 327.582031 C 1357.113281 327.480469 1356.996094 327.382812 1356.875 327.300781 C 1356.722656 327.199219 1356.5625 327.117188 1356.394531 327.054688 L 1174.164062 252.90625 C 1171.808594 241.601562 1154.167969 156.921875 1149.984375 134.261719 C 1145.253906 108.644531 1136.710938 97.621094 1120.492188 96.199219 C 1103.988281 94.757812 930.835938 82.257812 902.933594 81.066406 C 891.355469 80.566406 883.492188 83.035156 878.863281 88.589844 C 872.136719 96.660156 873.953125 109.679688 876.609375 121.355469 C 881.191406 141.449219 923.964844 302.632812 925.464844 308.285156 L 927.527344 323.097656 C 927.636719 323.886719 928.132812 324.566406 928.847656 324.917969 L 1132.714844 423.835938 C 1133.046875 423.996094 1133.398438 424.074219 1133.757812 424.074219 C 1134.035156 424.074219 1134.3125 424.027344 1134.582031 423.929688 L 1357.246094 342.28125 C 1358.253906 341.914062 1358.890625 340.914062 1358.800781 339.84375 L 1357.921875 329.105469 " fill-opacity="1" fill-rule="nonzero"/></g><path fill="#28285b" d="M 993.644531 309.503906 L 1015.34375 319.449219 L 999.089844 323.683594 L 977.457031 313.28125 Z M 1163.601562 269.882812 L 1179.949219 276.570312 L 1161.984375 281.25 L 1146.390625 273.894531 Z M 1240.832031 318.433594 L 1227.011719 311.917969 L 1248.820312 304.734375 L 1264.257812 311.046875 Z M 1088.277344 366.554688 L 1077.238281 361.246094 L 1094.308594 355.628906 L 1105.976562 360.96875 Z M 1039.8125 330.65625 L 1022.957031 335.152344 L 1003.46875 325.78125 L 1019.855469 321.519531 Z M 1180.066406 293.25 L 1162.386719 297.964844 L 1144.628906 289.011719 L 1161.671875 284.574219 Z M 1074.957031 343.308594 L 1092.253906 338.039062 L 1110.859375 346.871094 L 1094.496094 352.261719 Z M 1063.429688 324.359375 L 1044.574219 329.390625 L 1024.65625 320.265625 L 1044.125 315.195312 Z M 1088.65625 317.632812 L 1068.113281 323.109375 L 1048.84375 313.960938 L 1070.898438 308.222656 Z M 1112.785156 311.195312 L 1093.113281 316.445312 L 1075.390625 307.050781 L 1094.832031 301.988281 Z M 1135.066406 305.25 L 1117.3125 309.988281 L 1099.394531 300.796875 L 1117.539062 296.070312 Z M 1139.546875 304.054688 L 1122.054688 294.890625 L 1140.035156 290.210938 L 1157.828125 299.179688 Z M 1177.140625 308.917969 L 1159.234375 314.371094 L 1143.65625 306.207031 L 1162.042969 301.308594 Z M 1181.484375 307.597656 L 1166.597656 300.089844 L 1184.46875 295.324219 L 1199.109375 302.230469 Z M 1185.539062 309.640625 L 1203.332031 304.222656 L 1218.550781 311.398438 L 1200.695312 317.277344 Z M 1163.191406 316.445312 L 1181.195312 310.960938 L 1196.480469 318.667969 L 1178.65625 324.539062 Z M 1142.296875 322.804688 L 1158.914062 317.746094 L 1174.503906 325.90625 L 1158.574219 331.152344 Z M 1118.6875 329.996094 L 1137.984375 324.121094 L 1154.382812 332.535156 L 1135.324219 338.8125 Z M 1114.425781 331.289062 L 1131.191406 340.175781 L 1115.175781 345.449219 L 1096.710938 336.683594 Z M 1121.472656 312.125 L 1139.175781 307.402344 L 1154.957031 315.671875 L 1138.285156 320.746094 Z M 1133.96875 322.0625 L 1114.753906 327.910156 L 1097.1875 318.605469 L 1116.953125 313.332031 Z M 1088.042969 336.042969 L 1070.65625 341.335938 L 1049.054688 331.4375 L 1067.808594 326.4375 Z M 1072.496094 325.191406 L 1092.730469 319.792969 L 1110.5 329.207031 L 1092.503906 334.683594 Z M 1027.304688 337.242188 L 1044.289062 332.710938 L 1066.128906 342.714844 L 1049.328125 347.828125 Z M 1053.507812 349.839844 L 1070.429688 344.6875 L 1090.113281 353.703125 L 1073.164062 359.289062 Z M 1110.4375 359.5625 L 1098.695312 354.183594 L 1114.964844 348.824219 L 1126.753906 354.417969 Z M 1131.152344 353.03125 L 1119.289062 347.402344 L 1135.035156 342.210938 L 1146.386719 348.226562 Z M 1150.585938 346.902344 L 1139.167969 340.851562 L 1158.308594 334.546875 L 1170.28125 340.691406 Z M 1174.542969 339.34375 L 1162.492188 333.167969 L 1178.371094 327.9375 L 1190.523438 334.304688 Z M 1194.746094 332.972656 L 1182.523438 326.570312 L 1200.449219 320.667969 L 1213.269531 327.132812 Z M 1217.554688 325.777344 L 1204.664062 319.28125 L 1222.679688 313.34375 L 1236.421875 319.828125 Z M 1244.34375 302.90625 L 1222.882812 309.96875 L 1207.804688 302.859375 L 1228.691406 296.503906 Z M 1224.09375 294.621094 L 1203.582031 300.867188 L 1189.167969 294.070312 L 1209.492188 288.648438 Z M 1204.683594 286.683594 L 1184.769531 291.996094 L 1166.410156 283.339844 L 1184.792969 278.550781 Z M 1141.464844 275.046875 L 1157.242188 282.484375 L 1140.386719 286.875 L 1124.683594 278.960938 Z M 1119.914062 280.070312 L 1135.789062 288.074219 L 1117.921875 292.726562 L 1101.816406 284.285156 Z M 1097.136719 285.378906 L 1113.40625 293.90625 L 1095.203125 298.644531 L 1078.019531 289.835938 Z M 1073.296875 290.933594 L 1090.636719 299.835938 L 1071.285156 304.875 L 1053.632812 295.519531 Z M 1048.980469 296.605469 L 1066.792969 306.046875 L 1044.4375 311.871094 L 1024.367188 302.347656 Z M 1019.460938 303.488281 L 1039.710938 313.097656 L 1020.144531 318.195312 L 998.636719 308.34375 Z M 972.082031 314.179688 L 1087.476562 369.652344 C 1087.691406 369.753906 1087.921875 369.800781 1088.15625 369.800781 C 1088.316406 369.800781 1088.476562 369.78125 1088.625 369.734375 L 1150.886719 350.097656 C 1150.890625 350.097656 1150.898438 350.097656 1150.902344 350.089844 L 1195.046875 336.167969 C 1195.058594 336.164062 1195.066406 336.164062 1195.078125 336.160156 L 1269.34375 312.734375 C 1269.972656 312.539062 1270.410156 311.960938 1270.441406 311.304688 C 1270.464844 310.644531 1270.074219 310.039062 1269.464844 309.785156 L 1164.324219 266.789062 C 1164.023438 266.667969 1163.691406 266.640625 1163.378906 266.71875 L 972.40625 311.238281 C 971.753906 311.386719 971.273438 311.933594 971.203125 312.59375 C 971.128906 313.253906 971.476562 313.890625 972.082031 314.179688 " fill-opacity="1" fill-rule="nonzero"/><path fill="#28285b" d="M 940.574219 284.621094 L 895.722656 103.660156 L 1122.941406 117.199219 L 1150.378906 242.703125 Z M 1125.75 115.367188 C 1125.605469 114.683594 1125.015625 114.175781 1124.3125 114.132812 L 893.78125 100.398438 C 893.285156 100.375 892.800781 100.574219 892.484375 100.964844 C 892.164062 101.34375 892.046875 101.855469 892.167969 102.34375 L 937.886719 286.832031 C 938.0625 287.546875 938.703125 288.027344 939.410156 288.027344 C 939.511719 288.027344 939.613281 288.015625 939.71875 287.992188 L 1152.558594 245.472656 C 1152.96875 245.390625 1153.335938 245.140625 1153.5625 244.792969 C 1153.796875 244.4375 1153.875 244.011719 1153.78125 243.597656 L 1125.75 115.367188 " fill-opacity="1" fill-rule="nonzero"/><path fill="#28285b" d="M 1169.398438 390.097656 C 1169.535156 390.097656 1169.671875 390.070312 1169.804688 390.027344 L 1183.871094 384.996094 C 1184.496094 384.773438 1184.828125 384.085938 1184.597656 383.457031 C 1184.375 382.832031 1183.683594 382.5 1183.058594 382.726562 L 1168.996094 387.753906 C 1168.367188 387.980469 1168.039062 388.667969 1168.261719 389.296875 C 1168.441406 389.789062 1168.90625 390.097656 1169.398438 390.097656 " fill-opacity="1" fill-rule="nonzero"/><path fill="#28285b" d="M 1157.214844 391.445312 L 1136.324219 398.886719 C 1135.695312 399.113281 1135.371094 399.804688 1135.59375 400.429688 C 1135.769531 400.925781 1136.234375 401.230469 1136.730469 401.230469 C 1136.863281 401.230469 1137.003906 401.207031 1137.132812 401.164062 L 1158.027344 393.71875 C 1158.652344 393.496094 1158.980469 392.804688 1158.757812 392.179688 C 1158.53125 391.546875 1157.847656 391.222656 1157.214844 391.445312 " fill-opacity="1" fill-rule="nonzero"/><path fill="#28285b" d="M 1312.035156 338.117188 C 1312.164062 338.117188 1312.289062 338.097656 1312.414062 338.054688 L 1334.933594 330.703125 C 1335.566406 330.496094 1335.914062 329.8125 1335.707031 329.179688 C 1335.5 328.550781 1334.820312 328.199219 1334.1875 328.410156 L 1311.664062 335.761719 C 1311.03125 335.96875 1310.6875 336.648438 1310.890625 337.28125 C 1311.054688 337.792969 1311.53125 338.117188 1312.035156 338.117188 " fill-opacity="1" fill-rule="nonzero"/><path fill="#28285b" d="M 1274.199219 351.867188 C 1274.328125 351.867188 1274.460938 351.84375 1274.589844 351.800781 L 1300.707031 342.800781 C 1301.335938 342.585938 1301.667969 341.894531 1301.457031 341.261719 C 1301.238281 340.632812 1300.550781 340.300781 1299.921875 340.519531 L 1273.804688 349.519531 C 1273.179688 349.738281 1272.839844 350.421875 1273.058594 351.054688 C 1273.230469 351.554688 1273.699219 351.867188 1274.199219 351.867188 " fill-opacity="1" fill-rule="nonzero"/><path fill="#28285b" d="M 1122.140625 108.5 C 1128.53125 110.554688 1133.648438 116.585938 1134.3125 122.839844 C 1134.375 123.457031 1134.902344 123.917969 1135.511719 123.917969 C 1135.550781 123.917969 1135.59375 123.917969 1135.640625 123.914062 C 1136.300781 123.839844 1136.785156 123.25 1136.710938 122.582031 C 1135.953125 115.425781 1130.136719 108.535156 1122.878906 106.199219 C 1122.246094 106 1121.566406 106.34375 1121.363281 106.980469 C 1121.15625 107.617188 1121.507812 108.296875 1122.140625 108.5 " fill-opacity="1" fill-rule="nonzero"/><path fill="#28285b" d="M 1019.691406 98.59375 C 1020.832031 98.59375 1021.753906 99.628906 1021.753906 100.898438 C 1021.753906 102.167969 1020.832031 103.203125 1019.691406 103.203125 C 1018.546875 103.203125 1017.621094 102.167969 1017.621094 100.898438 C 1017.621094 99.628906 1018.546875 98.59375 1019.691406 98.59375 Z M 1019.691406 105.621094 C 1022.160156 105.621094 1024.167969 103.503906 1024.167969 100.898438 C 1024.167969 98.296875 1022.160156 96.179688 1019.691406 96.179688 C 1017.21875 96.179688 1015.207031 98.296875 1015.207031 100.898438 C 1015.207031 103.503906 1017.21875 105.621094 1019.691406 105.621094 " fill-opacity="1" fill-rule="nonzero"/><path fill="#28285b" d="M 1146.695312 186.28125 C 1146.8125 186.847656 1147.316406 187.242188 1147.875 187.242188 C 1147.957031 187.242188 1148.042969 187.230469 1148.125 187.21875 C 1148.773438 187.082031 1149.191406 186.441406 1149.0625 185.789062 L 1144.074219 161.699219 C 1143.9375 161.042969 1143.296875 160.628906 1142.644531 160.761719 C 1141.996094 160.898438 1141.574219 161.535156 1141.710938 162.1875 L 1146.695312 186.28125 " fill-opacity="1" fill-rule="nonzero"/><path fill="#28285b" d="M 1164.789062 247.089844 C 1163.824219 243.496094 1163.1875 239.738281 1162.574219 236.105469 C 1161.90625 232.128906 1161.210938 228.019531 1160.074219 224.035156 C 1159.894531 223.394531 1159.230469 223.023438 1158.585938 223.207031 C 1157.941406 223.386719 1157.574219 224.054688 1157.753906 224.695312 C 1158.851562 228.546875 1159.535156 232.59375 1160.195312 236.507812 C 1160.816406 240.191406 1161.464844 244.011719 1162.460938 247.714844 C 1162.605469 248.253906 1163.089844 248.609375 1163.625 248.609375 C 1163.726562 248.609375 1163.832031 248.597656 1163.933594 248.570312 C 1164.582031 248.394531 1164.964844 247.734375 1164.789062 247.089844 " fill-opacity="1" fill-rule="nonzero"/><path fill="#28285b" d="M 894.425781 93.449219 C 895.085938 93.5 895.675781 93.015625 895.734375 92.355469 C 895.789062 91.6875 895.300781 91.105469 894.636719 91.046875 C 891.535156 90.78125 888.988281 91.667969 887.046875 93.679688 C 883.566406 97.277344 882.941406 103.621094 883.519531 108.355469 C 883.59375 108.964844 884.113281 109.417969 884.714844 109.417969 C 884.761719 109.417969 884.8125 109.414062 884.859375 109.410156 C 885.523438 109.332031 885.996094 108.726562 885.914062 108.066406 C 885.429688 104.070312 885.890625 98.347656 888.777344 95.359375 C 890.191406 93.894531 892.109375 93.257812 894.425781 93.449219 " fill-opacity="1" fill-rule="nonzero"/><path fill="#28285b" d="M 906.054688 185.410156 C 905.890625 184.765625 905.230469 184.371094 904.589844 184.539062 C 903.945312 184.703125 903.554688 185.359375 903.714844 186.003906 L 910.683594 213.539062 C 910.824219 214.082031 911.316406 214.445312 911.855469 214.445312 C 911.953125 214.445312 912.054688 214.4375 912.152344 214.410156 C 912.800781 214.246094 913.191406 213.589844 913.023438 212.945312 L 906.054688 185.410156 " fill-opacity="1" fill-rule="nonzero"/><path fill="#28285b" d="M 927.929688 273.453125 C 927.738281 272.8125 927.074219 272.441406 926.429688 272.636719 C 925.792969 272.824219 925.421875 273.496094 925.613281 274.136719 L 932.121094 296.082031 C 932.273438 296.605469 932.753906 296.941406 933.28125 296.941406 C 933.390625 296.941406 933.507812 296.925781 933.621094 296.894531 C 934.261719 296.703125 934.625 296.035156 934.4375 295.390625 L 927.929688 273.453125 " fill-opacity="1" fill-rule="nonzero"/><g fill="#28285b" fill-opacity="1"><g transform="translate(81.000002, 154.885923)"><g><path d="M 21.84375 0 L 29.214844 0 L 29.214844 -56.03125 L 50.171875 -56.03125 L 50.171875 -62.601562 L 0.886719 -62.601562 L 0.886719 -56.03125 L 21.84375 -56.03125 Z M 21.84375 0 "/></g></g></g><g fill="#28285b" fill-opacity="1"><g transform="translate(132.057932, 154.885923)"><g><path d="M 23.886719 -46.707031 C 18.203125 -46.707031 13.410156 -43.246094 10.921875 -37.828125 L 10.832031 -37.828125 L 10.210938 -44.84375 L 4.441406 -44.84375 L 4.441406 0 L 11.1875 0 L 11.1875 -24.6875 C 11.1875 -34.453125 15.71875 -40.402344 22.910156 -40.402344 C 27.792969 -40.402344 31.078125 -37.027344 31.789062 -30.722656 L 37.652344 -32.679688 C 36.761719 -41.644531 31.523438 -46.707031 23.886719 -46.707031 Z M 23.886719 -46.707031 "/></g></g></g><g fill="#28285b" fill-opacity="1"><g transform="translate(171.483536, 154.885923)"><g><path d="M 19.089844 1.777344 C 27.082031 1.777344 33.300781 -1.777344 36.496094 -7.460938 L 36.585938 -7.460938 L 36.671875 -5.417969 C 36.941406 -1.332031 39.691406 1.777344 44.042969 1.777344 C 47.507812 1.777344 51.238281 -0.0898438 53.101562 -2.839844 L 49.460938 -7.105469 C 48.484375 -5.503906 47.0625 -4.441406 45.820312 -4.441406 C 44.398438 -4.441406 43.421875 -5.683594 43.421875 -7.460938 L 43.421875 -30.191406 C 43.421875 -40.226562 35.339844 -46.621094 23.886719 -46.621094 C 12.253906 -46.621094 3.550781 -39.691406 2.753906 -32.324219 L 8.878906 -29.746094 C 9.234375 -35.074219 15.183594 -40.492188 23.621094 -40.492188 C 31.433594 -40.492188 36.761719 -36.851562 36.761719 -31.257812 C 36.761719 -29.304688 35.339844 -28.058594 33.121094 -27.792969 L 22.023438 -26.460938 C 7.460938 -24.6875 1.777344 -18.914062 1.777344 -11.722656 C 1.777344 -3.730469 8.878906 1.777344 19.089844 1.777344 Z M 20.246094 -4.351562 C 13.410156 -4.351562 8.523438 -7.28125 8.523438 -11.808594 C 8.523438 -15.894531 11.898438 -19.359375 22.730469 -20.691406 L 36.585938 -22.378906 L 36.585938 -19.179688 C 36.585938 -10.476562 29.660156 -4.351562 20.246094 -4.351562 Z M 20.246094 -4.351562 "/></g></g></g><g fill="#28285b" fill-opacity="1"><g transform="translate(224.583775, 154.885923)"><g><path d="M 8.523438 -53.546875 C 11.453125 -53.546875 13.585938 -55.5 13.585938 -58.519531 C 13.585938 -61.449219 11.453125 -63.402344 8.523438 -63.402344 C 5.503906 -63.402344 3.550781 -61.449219 3.550781 -58.519531 C 3.550781 -55.5 5.503906 -53.546875 8.523438 -53.546875 Z M 5.0625 0 L 11.808594 0 L 11.808594 -44.84375 L 5.0625 -44.84375 Z M 5.0625 0 "/></g></g></g><g fill="#28285b" fill-opacity="1"><g transform="translate(241.721478, 154.885923)"><g><path d="M 28.503906 -46.621094 C 20.691406 -46.621094 15.097656 -43.601562 11.277344 -38.183594 L 11.1875 -38.183594 L 10.566406 -44.84375 L 4.441406 -44.84375 L 4.441406 0 L 11.1875 0 L 11.1875 -25.308594 C 11.1875 -34.453125 17.671875 -40.757812 26.640625 -40.757812 C 33.742188 -40.757812 38.273438 -35.875 38.273438 -28.238281 L 38.273438 0 L 45.109375 0 L 45.109375 -28.949219 C 45.109375 -40.046875 38.804688 -46.621094 28.503906 -46.621094 Z M 28.503906 -46.621094 "/></g></g></g><g fill="#28285b" fill-opacity="1"><g transform="translate(290.825893, 154.885923)"><g><path d="M 8.523438 -53.546875 C 11.453125 -53.546875 13.585938 -55.5 13.585938 -58.519531 C 13.585938 -61.449219 11.453125 -63.402344 8.523438 -63.402344 C 5.503906 -63.402344 3.550781 -61.449219 3.550781 -58.519531 C 3.550781 -55.5 5.503906 -53.546875 8.523438 -53.546875 Z M 5.0625 0 L 11.808594 0 L 11.808594 -44.84375 L 5.0625 -44.84375 Z M 5.0625 0 "/></g></g></g><g fill="#28285b" fill-opacity="1"><g transform="translate(307.963596, 154.885923)"><g><path d="M 28.503906 -46.621094 C 20.691406 -46.621094 15.097656 -43.601562 11.277344 -38.183594 L 11.1875 -38.183594 L 10.566406 -44.84375 L 4.441406 -44.84375 L 4.441406 0 L 11.1875 0 L 11.1875 -25.308594 C 11.1875 -34.453125 17.671875 -40.757812 26.640625 -40.757812 C 33.742188 -40.757812 38.273438 -35.875 38.273438 -28.238281 L 38.273438 0 L 45.109375 0 L 45.109375 -28.949219 C 45.109375 -40.046875 38.804688 -46.621094 28.503906 -46.621094 Z M 28.503906 -46.621094 "/></g></g></g><g fill="#28285b" fill-opacity="1"><g transform="translate(357.068026, 154.885923)"><g><path d="M 23.886719 20.421875 C 38.984375 20.421875 49.015625 11.011719 49.015625 -3.550781 L 49.015625 -44.84375 L 42.976562 -44.84375 L 42.269531 -37.5625 L 42.179688 -37.5625 C 38.539062 -42.800781 31.613281 -46.441406 25.128906 -46.441406 C 11.898438 -46.441406 2.753906 -36.851562 2.753906 -22.730469 C 2.753906 -8.96875 11.898438 0.53125 25.128906 0.53125 C 31.433594 0.53125 38.539062 -2.929688 42.089844 -8.523438 L 42.179688 -8.523438 L 42.179688 -3.550781 C 42.179688 7.28125 34.808594 14.296875 23.710938 14.296875 C 15.539062 14.296875 7.902344 10.210938 4.351562 3.996094 L -0.886719 8.4375 C 3.464844 15.628906 13.320312 20.421875 23.886719 20.421875 Z M 26.019531 -5.59375 C 16.25 -5.59375 9.5 -12.609375 9.5 -22.730469 C 9.5 -33.210938 16.25 -40.402344 26.019531 -40.402344 C 35.695312 -40.402344 42.445312 -32.765625 42.445312 -22.730469 C 42.445312 -12.964844 35.695312 -5.59375 26.019531 -5.59375 Z M 26.019531 -5.59375 "/></g></g></g><g fill="#28285b" fill-opacity="1"><g transform="translate(81.000002, 261.031873)"><g><path d="M 5.328125 0 L 12.699219 0 L 12.699219 -51.859375 L 12.875 -51.859375 L 34.988281 0 L 42.800781 0 L 64.910156 -51.945312 L 65.089844 -51.945312 L 65.089844 0 L 72.460938 0 L 72.460938 -62.601562 L 61.804688 -62.601562 L 38.984375 -8.082031 L 38.894531 -8.082031 L 15.984375 -62.601562 L 5.328125 -62.601562 Z M 5.328125 0 "/></g></g></g><g fill="#28285b" fill-opacity="1"><g transform="translate(158.78565, 261.031873)"><g><path d="M 27.4375 1.777344 C 37.472656 1.777344 45.910156 -3.285156 48.839844 -10.476562 L 42.976562 -12.875 C 40.492188 -7.992188 34.542969 -4.351562 27.527344 -4.351562 C 17.847656 -4.351562 10.65625 -10.832031 9.679688 -20.15625 L 47.417969 -20.15625 C 47.507812 -21.046875 47.507812 -22.023438 47.507812 -22.820312 C 47.328125 -36.671875 38.714844 -46.621094 25.574219 -46.621094 C 12.253906 -46.621094 2.664062 -36.671875 2.664062 -22.910156 C 2.664062 -8.613281 13.140625 1.777344 27.4375 1.777344 Z M 9.769531 -26.105469 C 11.011719 -34.632812 17.136719 -40.402344 25.484375 -40.402344 C 33.65625 -40.402344 39.425781 -35.253906 40.316406 -26.105469 Z M 9.769531 -26.105469 "/></g></g></g><g fill="#28285b" fill-opacity="1"><g transform="translate(209.754784, 261.031873)"><g><path d="M 23.976562 1.777344 C 31.613281 1.777344 38.449219 -3.019531 39.691406 -10.832031 L 34.1875 -13.140625 C 33.300781 -7.371094 29.125 -4.085938 24.597656 -4.085938 C 19.714844 -4.085938 16.605469 -7.726562 16.605469 -12.785156 L 16.605469 -39.25 L 36.671875 -39.25 L 36.671875 -44.84375 L 16.605469 -44.84375 L 16.605469 -59.761719 L 9.855469 -58.164062 L 9.855469 -44.84375 L 0 -44.84375 L 0 -39.25 L 9.855469 -39.25 L 9.855469 -12.078125 C 9.855469 -3.90625 15.539062 1.777344 23.976562 1.777344 Z M 23.976562 1.777344 "/></g></g></g><g fill="#28285b" fill-opacity="1"><g transform="translate(249.801956, 261.031873)"><g><path d="M 4.441406 0 L 11.1875 0 L 11.1875 -25.308594 C 11.1875 -34.453125 17.671875 -40.757812 26.640625 -40.757812 C 33.742188 -40.757812 38.273438 -35.875 38.273438 -28.238281 L 38.273438 0 L 45.109375 0 L 45.109375 -28.949219 C 45.109375 -40.046875 38.804688 -46.621094 28.503906 -46.621094 C 20.691406 -46.621094 15.097656 -43.601562 11.277344 -38.183594 L 11.1875 -38.183594 L 11.1875 -65.265625 L 4.441406 -65.265625 Z M 4.441406 0 "/></g></g></g><g fill="#28285b" fill-opacity="1"><g transform="translate(298.90637, 261.031873)"><g><path d="M 26.550781 1.777344 C 41.023438 1.777344 50.527344 -7.8125 50.527344 -22.378906 C 50.527344 -37.027344 41.023438 -46.621094 26.550781 -46.621094 C 12.164062 -46.621094 2.664062 -37.027344 2.664062 -22.378906 C 2.664062 -7.8125 12.164062 1.777344 26.550781 1.777344 Z M 26.550781 -4.351562 C 16.160156 -4.351562 9.414062 -11.453125 9.414062 -22.378906 C 9.414062 -33.300781 16.160156 -40.402344 26.550781 -40.402344 C 36.941406 -40.402344 43.6875 -33.300781 43.6875 -22.378906 C 43.6875 -11.453125 36.941406 -4.351562 26.550781 -4.351562 Z M 26.550781 -4.351562 "/></g></g></g><g fill="#28285b" fill-opacity="1"><g transform="translate(352.095421, 261.031873)"><g><path d="M 25.484375 1.777344 C 32.945312 1.777344 39.160156 -1.777344 42.976562 -7.726562 L 43.066406 -7.726562 L 43.6875 0 L 49.636719 0 L 49.636719 -65.265625 L 42.800781 -65.265625 L 42.800781 -37.296875 L 42.710938 -37.296875 C 38.894531 -43.15625 32.855469 -46.621094 25.394531 -46.621094 C 12.253906 -46.621094 2.664062 -36.40625 2.664062 -22.378906 C 2.664062 -8.4375 12.34375 1.777344 25.484375 1.777344 Z M 26.285156 -4.351562 C 16.605469 -4.351562 9.414062 -12.078125 9.414062 -22.378906 C 9.414062 -32.589844 16.515625 -40.402344 26.285156 -40.402344 C 35.964844 -40.402344 43.066406 -32.589844 43.066406 -22.378906 C 43.066406 -12.253906 35.964844 -4.351562 26.285156 -4.351562 Z M 26.285156 -4.351562 "/></g></g></g><g fill="#28285b" fill-opacity="1"><g transform="translate(406.172425, 261.031873)"><g><path d="M 23 1.777344 C 33.832031 1.777344 42 -4.441406 42 -12.875 C 42 -19.535156 37.472656 -23.265625 26.90625 -25.484375 L 19.625 -26.90625 C 13.410156 -28.238281 10.746094 -30.101562 10.746094 -33.386719 C 10.832031 -37.207031 15.007812 -40.667969 20.691406 -40.667969 C 27.082031 -40.667969 31.789062 -37.207031 32.410156 -32.5 L 38.894531 -34.277344 C 37.207031 -41.558594 30.191406 -46.621094 20.777344 -46.621094 C 11.1875 -46.621094 4.261719 -40.847656 4.171875 -33.03125 C 4.171875 -26.460938 8.167969 -22.730469 17.492188 -20.777344 L 24.597656 -19.359375 C 32.144531 -17.847656 35.429688 -15.71875 35.429688 -12.253906 C 35.429688 -7.636719 30.015625 -4.351562 23 -4.351562 C 15.007812 -4.351562 8.96875 -8.703125 8.4375 -14.917969 L 1.777344 -13.585938 C 2.574219 -3.996094 11.808594 1.777344 23 1.777344 Z M 23 1.777344 "/></g></g></g></svg>