<svg xmlns="http://www.w3.org/2000/svg" xmlns:xlink="http://www.w3.org/1999/xlink" width="1920" zoomAndPan="magnify" viewBox="0 0 1440 809.999993" height="1080" preserveAspectRatio="xMidYMid meet" version="1.0"><defs><g/></defs><rect x="-144" width="1728" fill="#ffffff" y="-80.999999" height="971.999992" fill-opacity="1"/><rect x="-144" width="1728" fill="#272524" y="-80.999999" height="971.999992" fill-opacity="1"/><g fill="#fefefe" fill-opacity="1"><g transform="translate(671.9531, 412.874999)"><g><path d="M 1.917969 0 L 10.109375 0 C 17.726562 0 21.949219 -4.03125 21.949219 -11.261719 C 21.949219 -18.523438 17.726562 -22.554688 10.109375 -22.554688 L 1.917969 -22.554688 Z M 4.574219 -2.367188 L 4.574219 -20.1875 L 10.109375 -20.1875 C 15.996094 -20.1875 19.292969 -17.019531 19.292969 -11.261719 C 19.292969 -5.535156 15.996094 -2.367188 10.109375 -2.367188 Z M 4.574219 -2.367188 "/></g></g></g><g fill="#fefefe" fill-opacity="1"><g transform="translate(695.019433, 412.874999)"><g><path d="M 1.917969 0 L 17.660156 0 L 17.660156 -2.367188 L 4.511719 -2.367188 L 4.511719 -10.496094 L 16.0625 -10.496094 L 16.0625 -12.796875 L 4.511719 -12.796875 L 4.511719 -20.1875 L 17.339844 -20.1875 L 17.339844 -22.554688 L 1.917969 -22.554688 Z M 1.917969 0 "/></g></g></g><g fill="#fefefe" fill-opacity="1"><g transform="translate(713.478901, 412.874999)"><g><path d="M 1.917969 0 L 4.574219 0 L 4.574219 -18.683594 L 4.640625 -18.683594 L 12.605469 0 L 15.421875 0 L 23.386719 -18.71875 L 23.453125 -18.71875 L 23.453125 0 L 26.109375 0 L 26.109375 -22.554688 L 22.269531 -22.554688 L 14.046875 -2.910156 L 14.015625 -2.910156 L 5.757812 -22.554688 L 1.917969 -22.554688 Z M 1.917969 0 "/></g></g></g><g fill="#fefefe" fill-opacity="1"><g transform="translate(741.504015, 412.874999)"><g><path d="M 13.246094 0.800781 C 20.605469 0.800781 25.402344 -4 25.402344 -11.261719 C 25.402344 -18.558594 20.605469 -23.355469 13.246094 -23.355469 C 5.917969 -23.355469 1.121094 -18.558594 1.121094 -11.261719 C 1.121094 -4 5.917969 0.800781 13.246094 0.800781 Z M 13.246094 -1.566406 C 7.519531 -1.566406 3.777344 -5.4375 3.777344 -11.261719 C 3.777344 -17.117188 7.519531 -20.988281 13.246094 -20.988281 C 18.972656 -20.988281 22.714844 -17.117188 22.714844 -11.261719 C 22.714844 -5.4375 18.972656 -1.566406 13.246094 -1.566406 Z M 13.246094 -1.566406 "/></g></g></g></svg>